<svg width="60" height="60" viewBox="0 0 60 60" fill="none" xmlns="http://www.w3.org/2000/svg">
<path d="M52.2656 24.75C51.3047 23.7656 50.3438 22.7344 49.9219 21.75C49.5 20.7656 49.5234 19.5234 49.5 18.1406C49.4766 16.0312 49.4297 13.6406 47.9062 12.0937C46.3828 10.5469 43.9688 10.5234 41.8594 10.5C40.4766 10.4766 39.1875 10.4531 38.25 10.0781C37.3125 9.70312 36.2344 8.69531 35.25 7.73438C33.6797 6.23438 32.0625 4.6875 30 4.6875C27.9375 4.6875 26.3203 6.23438 24.75 7.73438C23.7656 8.69531 22.7344 9.65625 21.75 10.0781C20.7656 10.5 19.5234 10.4766 18.1406 10.5C16.0312 10.5234 13.6406 10.5703 12.0937 12.0937C10.5469 13.6172 10.5234 16.0312 10.5 18.1406C10.4766 19.5234 10.4531 20.8125 10.0781 21.75C9.70312 22.6875 8.69531 23.7656 7.73438 24.75C6.23438 26.3203 4.6875 27.9375 4.6875 30C4.6875 32.0625 6.23438 33.6797 7.73438 35.25C8.69531 36.2344 9.65625 37.2656 10.0781 38.25C10.5 39.2344 10.4766 40.4766 10.5 41.8594C10.5234 43.9688 10.5703 46.3594 12.0937 47.9062C13.6172 49.4531 16.0312 49.4766 18.1406 49.5C19.5234 49.5234 20.8125 49.5469 21.75 49.9219C22.6875 50.2969 23.7656 51.3047 24.75 52.2656C26.3203 53.7656 27.9375 55.3125 30 55.3125C32.0625 55.3125 33.6797 53.7656 35.25 52.2656C36.2344 51.3047 37.2656 50.3438 38.25 49.9219C39.2344 49.5 40.4766 49.5234 41.8594 49.5C43.9688 49.4766 46.3594 49.4297 47.9062 47.9062C49.4531 46.3828 49.4766 43.9688 49.5 41.8594C49.5234 40.4766 49.5469 39.1875 49.9219 38.25C50.2969 37.3125 51.3047 36.2344 52.2656 35.25C53.7656 33.6797 55.3125 32.0625 55.3125 30C55.3125 27.9375 53.7656 26.3203 52.2656 24.75ZM50.9062 33.9609C49.8516 35.0625 48.75 36.2109 48.1875 37.5469C47.625 38.8828 47.6484 40.3359 47.625 41.8359C47.6016 43.7578 47.5781 45.5859 46.5703 46.5703C45.5625 47.5547 43.7578 47.6016 41.8359 47.625C40.3359 47.6484 38.7891 47.6719 37.5469 48.1875C36.3047 48.7031 35.0625 49.8516 33.9609 50.9062C32.8594 51.9609 31.3125 53.4375 30 53.4375C28.6875 53.4375 27.3984 52.2188 26.0391 50.9062C24.6797 49.5938 23.7891 48.75 22.4531 48.1875C21.1172 47.625 19.6641 47.6484 18.1641 47.625C16.2422 47.6016 14.4141 47.5781 13.4297 46.5703C12.4453 45.5625 12.3984 43.7578 12.375 41.8359C12.3516 40.3359 12.3281 38.7891 11.8125 37.5469C11.2969 36.3047 10.1484 35.0625 9.09375 33.9609C8.03906 32.8594 6.5625 31.3125 6.5625 30C6.5625 28.6875 7.78125 27.3984 9.09375 26.0391C10.4062 24.6797 11.25 23.7891 11.8125 22.4531C12.375 21.1172 12.3516 19.6641 12.375 18.1641C12.3984 16.2422 12.4219 14.4141 13.4297 13.4297C14.4375 12.4453 16.2422 12.3984 18.1641 12.375C19.6641 12.3516 21.2109 12.3281 22.4531 11.8125C23.6953 11.2969 24.9375 10.1484 26.0391 9.09375C27.1406 8.03906 28.6875 6.5625 30 6.5625C31.3125 6.5625 32.6016 7.78125 33.9609 9.09375C35.3203 10.4062 36.2109 11.25 37.5469 11.8125C38.8828 12.375 40.3359 12.3516 41.8359 12.375C43.7578 12.3984 45.5859 12.4219 46.5703 13.4297C47.5547 14.4375 47.6016 16.2422 47.625 18.1641C47.6484 19.6641 47.6719 21.2109 48.1875 22.4531C48.7031 23.6953 49.8516 24.9375 50.9062 26.0391C51.9609 27.1406 53.4375 28.6875 53.4375 30C53.4375 31.3125 52.2188 32.6016 50.9062 33.9609ZM40.9922 23.7188C41.1623 23.901 41.255 24.1422 41.2507 24.3915C41.2463 24.6407 41.1452 24.8786 40.9688 25.0547L27.2109 38.1797C27.0304 38.3418 26.7973 38.4334 26.5547 38.4375C26.3184 38.4366 26.0916 38.3442 25.9219 38.1797L19.0312 31.6172C18.942 31.531 18.8706 31.4281 18.8211 31.3143C18.7716 31.2005 18.745 31.0781 18.7428 30.9541C18.7407 30.83 18.763 30.7068 18.8084 30.5913C18.8539 30.4759 18.9216 30.3705 19.0078 30.2812C19.094 30.192 19.1969 30.1206 19.3107 30.0711C19.4245 30.0216 19.5469 29.995 19.6709 29.9928C19.795 29.9907 19.9182 30.013 20.0337 30.0584C20.1491 30.1039 20.2545 30.1716 20.3438 30.2578L26.5547 36.2109L39.6562 23.6953C39.8385 23.5252 40.0797 23.4325 40.329 23.4368C40.5782 23.4412 40.8161 23.5423 40.9922 23.7188Z" fill="black"/>
</svg>
